<svg width="20" height="20" viewBox="0 0 20 20" fill="none" xmlns="http://www.w3.org/2000/svg">
<path d="M18.185 6.1925C18.1083 6.08173 18.006 5.99119 17.8867 5.92864C17.7674 5.86608 17.6347 5.83338 17.5 5.83334H6.11079L5.14913 3.525C5.02303 3.22102 4.80952 2.96133 4.53565 2.77885C4.26178 2.59636 3.93989 2.49932 3.61079 2.5H1.66663V4.16667H3.61079L7.56413 13.6542C7.62745 13.806 7.73427 13.9356 7.87115 14.0268C8.00802 14.118 8.16882 14.1667 8.33329 14.1667H15C15.3475 14.1667 15.6583 13.9508 15.7808 13.6267L18.2808 6.96C18.328 6.83385 18.344 6.69813 18.3273 6.56446C18.3106 6.43079 18.2618 6.30316 18.185 6.1925V6.1925ZM14.4225 12.5H8.88913L6.80579 7.5H16.2975L14.4225 12.5Z" fill="black"/>
<path d="M8.75 17.5C9.44036 17.5 10 16.9404 10 16.25C10 15.5596 9.44036 15 8.75 15C8.05964 15 7.5 15.5596 7.5 16.25C7.5 16.9404 8.05964 17.5 8.75 17.5Z" fill="black"/>
<path d="M14.5834 17.5C15.2737 17.5 15.8334 16.9404 15.8334 16.25C15.8334 15.5596 15.2737 15 14.5834 15C13.893 15 13.3334 15.5596 13.3334 16.25C13.3334 16.9404 13.893 17.5 14.5834 17.5Z" fill="black"/>
</svg>
